<?xml version="1.0" encoding="UTF-8"?>
<svg version="1.1" xmlns="http://www.w3.org/2000/svg" width="2048" height="2048">
<path d="M0 0 C2.94884801 0.00564662 5.89769025 0.00846323 8.84654236 0.0110817 C36.84747294 0.04721378 64.73707431 0.33421082 92.62828064 3.06482315 C95.33204388 3.32950895 98.03665647 3.58404331 100.74143982 3.83807755 C192.4044375 12.56969842 282.74114866 33.30023014 459.00804138 105.73797989 C462.0308542 107.22729509 465.0597402 108.70349581 468.09007263 110.17743301 C480.43834425 116.22223072 492.41127937 122.81850885 504.32835388 129.66962051 C507.18615317 131.30154379 510.05686506 132.90768555 512.93382263 134.50555801 C550.32608544 155.30390513 586.18388067 179.39508936 620.21507263 205.31805801 C620.78709412 205.75360001 621.3591156 206.189142 621.94847107 206.63788223 C625.71807059 209.51316914 629.47008533 212.41079487 633.21507263 215.31805801 C633.77935974 215.75472794 634.34364685 216.19139786 634.92503357 216.6413002 C642.47470891 222.48987748 649.86075695 228.48954364 657.12132263 234.69305801 C660.01058584 237.15721765 662.95025721 239.55466801 665.90257263 241.94305801 C670.35411071 245.56640297 674.63889718 249.33769674 678.88304138 253.20087051 C680.97331152 255.09856971 683.08493378 256.96539216 685.21507263 258.81805801 C701.10842738 272.68919665 716.30213533 287.23689981 731.19749451 302.1701088 C733.73606114 304.7140913 736.28000593 307.2526093 738.82444763 309.79071426 C740.46539376 311.43232041 742.10603007 313.07423632 743.74632263 314.71649551 C744.86835083 315.83548737 744.86835083 315.83548737 746.01304626 316.97708511 C750.05581771 321.03775859 753.93659575 325.1835891 757.66798401 329.53285599 C760.22176657 332.47969287 762.91467255 335.29460116 765.59007263 338.13055801 C770.31380373 343.1737162 774.78341554 348.34496777 779.10569763 353.73993301 C781.23492409 356.34232091 783.4495662 358.83381303 785.71507263 361.31805801 C790.41920566 366.4934168 794.8340501 371.86815037 799.21507263 377.31805801 C800.14080433 378.46262935 801.06658792 379.6071587 801.99241638 380.75165176 C824.7761868 408.99533721 846.16978316 438.3675288 865.70335388 468.95331192 C867.15837793 471.22937182 868.62351725 473.49863613 870.09007263 475.76727676 C883.75462201 497.02557112 896.37447258 518.9972846 908.21507263 541.31805801 C908.70282166 542.23715958 909.19057068 543.15626114 909.69309998 544.10321426 C913.24577843 550.81831921 916.74438929 557.56025343 920.21507263 564.31805801 C920.70475525 565.26874161 921.19443787 566.2194252 921.69895935 567.19891739 C962.09843457 645.89331225 990.10568403 730.86850303 1008.21507263 817.31805801 C1008.37407043 818.07461685 1008.53306824 818.83117569 1008.69688416 819.61066055 C1016.77554762 858.21337873 1021.93460162 897.37951126 1025.48851013 936.64227676 C1025.54858749 937.30283569 1025.60866486 937.96339462 1025.67056274 938.64397049 C1025.86491408 940.86774253 1026.03924866 943.09274472 1026.21507263 945.31805801 C1026.30095642 946.26862076 1026.38684021 947.2191835 1026.47532654 948.19855118 C1027.5051905 961.0040237 1027.39757887 973.83068243 1027.41526127 986.66935205 C1027.41823043 988.72356069 1027.42234202 990.77776423 1027.42676544 992.83197021 C1027.4404026 999.32412244 1027.45008184 1005.8162624 1027.45396733 1012.30842793 C1027.45796955 1018.95102513 1027.47014791 1025.59347794 1027.49632263 1032.23602676 C1027.61759205 1063.70434038 1027.70958399 1094.99823676 1024.21507263 1126.31805801 C1024.01175885 1128.32594772 1023.81070064 1130.33406789 1023.61253357 1132.34247208 C1023.12191779 1137.1962796 1022.56170618 1142.03874929 1021.96507263 1146.88055801 C1021.86247131 1147.72595139 1021.75987 1148.57134476 1021.65415955 1149.44235611 C1010.81563588 1238.23495526 988.5308488 1325.07215077 922.79515076 1480.11102676 C921.30583555 1483.13383958 919.82963483 1486.16272558 918.35569763 1489.19305801 C912.31089993 1501.54132963 905.71462179 1513.51426475 898.86351013 1525.43133926 C897.23158686 1528.28913855 895.6254451 1531.15985044 894.02757263 1534.03680801 C873.22922551 1571.42907082 849.13804128 1607.28686605 823.21507263 1641.31805801 C822.77953064 1641.8900795 822.34398865 1642.46210098 821.89524841 1643.05145645 C819.01996151 1646.82105597 816.12233577 1650.57307071 813.21507263 1654.31805801 C812.77840271 1654.88234512 812.34173279 1655.44663223 811.89183044 1656.02801895 C806.04325317 1663.5776943 800.043587 1670.96374233 793.84007263 1678.22430801 C791.37591299 1681.11357122 788.97846263 1684.05324259 786.59007263 1687.00555801 C782.96672768 1691.4570961 779.19543391 1695.74188256 775.33226013 1699.98602676 C773.43456094 1702.07629691 771.56773849 1704.18791916 769.71507263 1706.31805801 C755.843934 1722.21141276 741.29623084 1737.40512072 726.36302185 1752.30047989 C723.81903935 1754.83904652 721.28052135 1757.38299132 718.74241638 1759.92743301 C717.10081023 1761.56837914 715.45889432 1763.20901545 713.81663513 1764.84930801 C712.69764328 1765.97133621 712.69764328 1765.97133621 711.55604553 1767.11603165 C707.49537206 1771.15880309 703.34954155 1775.03958114 699.00027466 1778.77096939 C696.05343778 1781.32475196 693.23852949 1784.01765793 690.40257263 1786.69305801 C685.35941445 1791.41678911 680.18816287 1795.88640092 674.79319763 1800.20868301 C672.19080974 1802.33790947 669.69931761 1804.55255158 667.21507263 1806.81805801 C662.03992447 1811.52273816 656.65304423 1815.92242145 651.21507263 1820.31805801 C649.98387176 1821.32888569 648.75344645 1822.34065851 647.52366638 1823.35321426 C638.95827702 1830.38963862 630.24455301 1837.17407398 621.32640076 1843.75702286 C619.14359155 1845.37090839 616.96809111 1846.99430571 614.79319763 1848.61883926 C596.83194234 1861.99521765 578.45435042 1874.75214408 559.57981873 1886.80633926 C557.30375883 1888.26136331 555.03449451 1889.72650264 552.76585388 1891.19305801 C531.50755953 1904.85760739 509.53584604 1917.47745796 487.21507263 1929.31805801 C486.29597107 1929.80580704 485.37686951 1930.29355606 484.42991638 1930.79608536 C477.71481144 1934.34876382 470.97287722 1937.84737467 464.21507263 1941.31805801 C463.26438904 1941.80774063 462.31370544 1942.29742325 461.33421326 1942.80194473 C382.6398184 1983.20141995 297.66462762 2011.20866941 211.21507263 2029.31805801 C210.08023437 2029.55655472 210.08023437 2029.55655472 208.92247009 2029.79986954 C170.31975192 2037.87853301 131.15361938 2043.037587 91.89085388 2046.59149551 C91.23029495 2046.65157288 90.56973602 2046.71165024 89.88916016 2046.77354813 C87.66538812 2046.96789946 85.44038593 2047.14223404 83.21507263 2047.31805801 C82.26450989 2047.4039418 81.31394714 2047.48982559 80.33457947 2047.57831192 C67.52910695 2048.60817589 54.70244821 2048.50056425 41.86377859 2048.51824665 C39.80956995 2048.52121581 37.75536642 2048.5253274 35.70116043 2048.52975082 C29.20900821 2048.54338798 22.71686824 2048.55306723 16.22470272 2048.55695271 C9.58210552 2048.56095493 2.9396527 2048.57313329 -3.70289612 2048.59930801 C-35.17120973 2048.72057743 -66.46510611 2048.81256937 -97.78492737 2045.31805801 C-99.79281707 2045.11474423 -101.80093724 2044.91368602 -103.80934143 2044.71551895 C-108.66314895 2044.22490317 -113.50561864 2043.66469156 -118.34742737 2043.06805801 C-119.19282074 2042.9654567 -120.03821411 2042.86285538 -120.90922546 2042.75714493 C-209.70182462 2031.91862126 -296.53902013 2009.63383418 -451.57789612 1943.89813614 C-454.60070893 1942.40882093 -457.62959494 1940.93262022 -460.65992737 1939.45868301 C-473.00819898 1933.41388531 -484.98113411 1926.81760718 -496.89820862 1919.96649551 C-499.75600791 1918.33457224 -502.62671979 1916.72843048 -505.50367737 1915.13055801 C-542.89594018 1894.33221089 -578.75373541 1870.24102667 -612.78492737 1844.31805801 C-613.35694885 1843.88251602 -613.92897034 1843.44697403 -614.51832581 1842.9982338 C-618.28792532 1840.12294689 -622.03994007 1837.22532116 -625.78492737 1834.31805801 C-626.34921448 1833.88138809 -626.91350159 1833.44471817 -627.49488831 1832.99481583 C-635.04456365 1827.14623855 -642.43061168 1821.14657239 -649.69117737 1814.94305801 C-652.58044057 1812.47889837 -655.52011195 1810.08144802 -658.47242737 1807.69305801 C-662.92396545 1804.06971306 -667.20875192 1800.29841929 -671.45289612 1796.43524551 C-673.54316626 1794.53754632 -675.65478852 1792.67072387 -677.78492737 1790.81805801 C-693.67828211 1776.94691938 -708.87199007 1762.39921622 -723.76734924 1747.46600723 C-726.30591587 1744.92202473 -728.84986067 1742.38350673 -731.39430237 1739.84540176 C-733.03524849 1738.20379561 -734.67588481 1736.5618797 -736.31617737 1734.91962051 C-737.06419617 1734.17362595 -737.81221497 1733.42763138 -738.582901 1732.65903091 C-742.62567244 1728.59835744 -746.50645049 1724.45252693 -750.23783875 1720.10326004 C-752.79162131 1717.15642316 -755.48452728 1714.34151487 -758.15992737 1711.50555801 C-762.88365846 1706.46239983 -767.35327027 1701.29114826 -771.67555237 1695.89618301 C-773.80477883 1693.29379512 -776.01942094 1690.802303 -778.28492737 1688.31805801 C-782.9890604 1683.14269922 -787.40390484 1677.76796566 -791.78492737 1672.31805801 C-792.71065906 1671.17348668 -793.63644266 1670.02895732 -794.56227112 1668.88446426 C-817.34604154 1640.64077881 -838.7396379 1611.26858723 -858.27320862 1580.68280411 C-859.72823266 1578.40674421 -861.19337199 1576.1374799 -862.65992737 1573.86883926 C-876.32447675 1552.61054491 -888.94432731 1530.63883143 -900.78492737 1508.31805801 C-901.27267639 1507.39895645 -901.76042542 1506.47985489 -902.26295471 1505.53290176 C-905.81563317 1498.81779682 -909.31424403 1492.0758626 -912.78492737 1485.31805801 C-913.51945129 1483.89203262 -913.51945129 1483.89203262 -914.26881409 1482.43719864 C-954.66828931 1403.74280378 -982.67553876 1318.767613 -1000.78492737 1232.31805801 C-1001.02342407 1231.18321976 -1001.02342407 1231.18321976 -1001.26673889 1230.02545547 C-1008.60042893 1194.98248447 -1013.57886603 1159.43806173 -1017.09742737 1123.81805801 C-1017.17278717 1123.06786392 -1017.24814697 1122.31766983 -1017.32579041 1121.54474258 C-1017.89281452 1115.8082042 -1018.35739683 1110.06656355 -1018.78492737 1104.31805801 C-1018.91413071 1102.6128096 -1018.91413071 1102.6128096 -1019.04594421 1100.87311172 C-1020.81627933 1076.76527274 -1021.14880794 1052.71213291 -1021.10298538 1028.54569626 C-1021.09734208 1025.52236757 -1021.09452353 1022.4990445 -1021.09190369 1019.47571182 C-1021.05669135 991.52465762 -1020.84311525 963.68189279 -1018.03816223 935.84631729 C-1017.77119744 933.18098044 -1017.51726921 930.51460031 -1017.26490784 927.84784317 C-1008.49171762 836.15552045 -987.8164574 745.82799899 -915.36500549 569.52508926 C-913.87569029 566.50227645 -912.39948957 563.47339045 -910.92555237 560.44305801 C-904.88075467 548.0947864 -898.28447653 536.12185127 -891.43336487 524.20477676 C-889.80144159 521.34697747 -888.19529984 518.47626559 -886.59742737 515.59930801 C-865.79908025 478.20704521 -841.70789602 442.34924997 -815.78492737 408.31805801 C-815.34938538 407.74603653 -814.91384338 407.17401505 -814.46510315 406.58465958 C-811.58981625 402.81506006 -808.69219051 399.06304531 -805.78492737 395.31805801 C-805.34825745 394.7537709 -804.91158752 394.1894838 -804.46168518 393.60809708 C-798.61310791 386.05842173 -792.61344174 378.6723737 -786.40992737 371.41180801 C-783.94576773 368.52254481 -781.54831737 365.58287343 -779.15992737 362.63055801 C-775.53658242 358.17901993 -771.76528864 353.89423346 -767.90211487 349.65008926 C-766.00441568 347.55981912 -764.13759322 345.44819686 -762.28492737 343.31805801 C-748.41378873 327.42470327 -733.86608558 312.23099531 -718.93287659 297.33563614 C-716.38889409 294.79706951 -713.85037608 292.25312471 -711.31227112 289.70868301 C-709.67066497 288.06773689 -708.02874906 286.42710058 -706.38648987 284.78680801 C-705.6404953 284.03878922 -704.89450073 283.29077042 -704.12590027 282.52008438 C-700.06522679 278.47731294 -695.91939628 274.59653489 -691.57012939 270.86514664 C-688.62329252 268.31136407 -685.80838422 265.6184581 -682.97242737 262.94305801 C-677.92926919 258.21932692 -672.75801761 253.74971511 -667.36305237 249.42743301 C-664.76066447 247.29820655 -662.26917235 245.08356444 -659.78492737 242.81805801 C-654.60956858 238.11392499 -649.23483501 233.69908054 -643.78492737 229.31805801 C-642.64035604 228.39232632 -641.49582668 227.46654272 -640.35133362 226.54071426 C-612.10764817 203.75694384 -582.73545658 182.36334748 -552.14967346 162.82977676 C-549.87361356 161.37475272 -547.60434925 159.90961339 -545.33570862 158.44305801 C-524.07741426 144.77850863 -502.10570078 132.15865807 -479.78492737 120.31805801 C-478.86582581 119.83030899 -477.94672424 119.34255997 -476.99977112 118.84003067 C-470.28466618 115.28735221 -463.54273195 111.78874136 -456.78492737 108.31805801 C-455.35890198 107.58353409 -455.35890198 107.58353409 -453.90406799 106.8341713 C-373.06357391 65.33294947 -285.35740518 36.50384375 -95.22242737 4.06805801 C-94.43572662 3.99092575 -93.64902588 3.91379349 -92.83848572 3.83432388 C-86.82600367 3.25334389 -80.80869157 2.76611054 -74.78492737 2.31805801 C-73.627883 2.23085495 -72.47083862 2.14365189 -71.2787323 2.0538063 C-47.51870331 0.31925952 -23.81758025 -0.04634621 0 0 Z " fill="#141E27" transform="translate(1020.7849273681641,-0.3180580139160156)"/>
<path d="M0 0 C2.94884801 0.00564662 5.89769025 0.00846323 8.84654236 0.0110817 C36.84747294 0.04721378 64.73707431 0.33421082 92.62828064 3.06482315 C95.33204388 3.32950895 98.03665647 3.58404331 100.74143982 3.83807755 C192.4044375 12.56969842 282.74114866 33.30023014 459.00804138 105.73797989 C462.0308542 107.22729509 465.0597402 108.70349581 468.09007263 110.17743301 C480.43834425 116.22223072 492.41127937 122.81850885 504.32835388 129.66962051 C507.18615317 131.30154379 510.05686506 132.90768555 512.93382263 134.50555801 C550.32608544 155.30390513 586.18388067 179.39508936 620.21507263 205.31805801 C620.78709412 205.75360001 621.3591156 206.189142 621.94847107 206.63788223 C625.71807059 209.51316914 629.47008533 212.41079487 633.21507263 215.31805801 C633.77935974 215.75472794 634.34364685 216.19139786 634.92503357 216.6413002 C642.47470891 222.48987748 649.86075695 228.48954364 657.12132263 234.69305801 C660.01058584 237.15721765 662.95025721 239.55466801 665.90257263 241.94305801 C670.35411071 245.56640297 674.63889718 249.33769674 678.88304138 253.20087051 C680.97331152 255.09856971 683.08493378 256.96539216 685.21507263 258.81805801 C701.10842738 272.68919665 716.30213533 287.23689981 731.19749451 302.1701088 C733.73606114 304.7140913 736.28000593 307.2526093 738.82444763 309.79071426 C740.46539376 311.43232041 742.10603007 313.07423632 743.74632263 314.71649551 C744.86835083 315.83548737 744.86835083 315.83548737 746.01304626 316.97708511 C750.05581771 321.03775859 753.93659575 325.1835891 757.66798401 329.53285599 C760.22176657 332.47969287 762.91467255 335.29460116 765.59007263 338.13055801 C770.31380373 343.1737162 774.78341554 348.34496777 779.10569763 353.73993301 C781.23492409 356.34232091 783.4495662 358.83381303 785.71507263 361.31805801 C790.41920566 366.4934168 794.8340501 371.86815037 799.21507263 377.31805801 C800.14080433 378.46262935 801.06658792 379.6071587 801.99241638 380.75165176 C824.7761868 408.99533721 846.16978316 438.3675288 865.70335388 468.95331192 C867.15837793 471.22937182 868.62351725 473.49863613 870.09007263 475.76727676 C883.75462201 497.02557112 896.37447258 518.9972846 908.21507263 541.31805801 C908.70282166 542.23715958 909.19057068 543.15626114 909.69309998 544.10321426 C913.24577843 550.81831921 916.74438929 557.56025343 920.21507263 564.31805801 C920.70475525 565.26874161 921.19443787 566.2194252 921.69895935 567.19891739 C962.09843457 645.89331225 990.10568403 730.86850303 1008.21507263 817.31805801 C1008.37407043 818.07461685 1008.53306824 818.83117569 1008.69688416 819.61066055 C1016.77554762 858.21337873 1021.93460162 897.37951126 1025.48851013 936.64227676 C1025.54858749 937.30283569 1025.60866486 937.96339462 1025.67056274 938.64397049 C1025.86491408 940.86774253 1026.03924866 943.09274472 1026.21507263 945.31805801 C1026.30095642 946.26862076 1026.38684021 947.2191835 1026.47532654 948.19855118 C1027.5051905 961.0040237 1027.39757887 973.83068243 1027.41526127 986.66935205 C1027.41823043 988.72356069 1027.42234202 990.77776423 1027.42676544 992.83197021 C1027.4404026 999.32412244 1027.45008184 1005.8162624 1027.45396733 1012.30842793 C1027.45796955 1018.95102513 1027.47014791 1025.59347794 1027.49632263 1032.23602676 C1027.61759205 1063.70434038 1027.70958399 1094.99823676 1024.21507263 1126.31805801 C1024.01175885 1128.32594772 1023.81070064 1130.33406789 1023.61253357 1132.34247208 C1023.12191779 1137.1962796 1022.56170618 1142.03874929 1021.96507263 1146.88055801 C1021.86247131 1147.72595139 1021.75987 1148.57134476 1021.65415955 1149.44235611 C1010.81563588 1238.23495526 988.5308488 1325.07215077 922.79515076 1480.11102676 C921.30583555 1483.13383958 919.82963483 1486.16272558 918.35569763 1489.19305801 C912.31089993 1501.54132963 905.71462179 1513.51426475 898.86351013 1525.43133926 C897.23158686 1528.28913855 895.6254451 1531.15985044 894.02757263 1534.03680801 C873.22922551 1571.42907082 849.13804128 1607.28686605 823.21507263 1641.31805801 C822.77953064 1641.8900795 822.34398865 1642.46210098 821.89524841 1643.05145645 C819.01996151 1646.82105597 816.12233577 1650.57307071 813.21507263 1654.31805801 C812.77840271 1654.88234512 812.34173279 1655.44663223 811.89183044 1656.02801895 C806.04325317 1663.5776943 800.043587 1670.96374233 793.84007263 1678.22430801 C791.37591299 1681.11357122 788.97846263 1684.05324259 786.59007263 1687.00555801 C782.96672768 1691.4570961 779.19543391 1695.74188256 775.33226013 1699.98602676 C773.43456094 1702.07629691 771.56773849 1704.18791916 769.71507263 1706.31805801 C755.843934 1722.21141276 741.29623084 1737.40512072 726.36302185 1752.30047989 C723.81903935 1754.83904652 721.28052135 1757.38299132 718.74241638 1759.92743301 C717.10081023 1761.56837914 715.45889432 1763.20901545 713.81663513 1764.84930801 C712.69764328 1765.97133621 712.69764328 1765.97133621 711.55604553 1767.11603165 C707.49537206 1771.15880309 703.34954155 1775.03958114 699.00027466 1778.77096939 C696.05343778 1781.32475196 693.23852949 1784.01765793 690.40257263 1786.69305801 C685.35941445 1791.41678911 680.18816287 1795.88640092 674.79319763 1800.20868301 C672.19080974 1802.33790947 669.69931761 1804.55255158 667.21507263 1806.81805801 C662.03992447 1811.52273816 656.65304423 1815.92242145 651.21507263 1820.31805801 C649.98387176 1821.32888569 648.75344645 1822.34065851 647.52366638 1823.35321426 C638.95827702 1830.38963862 630.24455301 1837.17407398 621.32640076 1843.75702286 C619.14359155 1845.37090839 616.96809111 1846.99430571 614.79319763 1848.61883926 C596.83194234 1861.99521765 578.45435042 1874.75214408 559.57981873 1886.80633926 C557.30375883 1888.26136331 555.03449451 1889.72650264 552.76585388 1891.19305801 C531.50755953 1904.85760739 509.53584604 1917.47745796 487.21507263 1929.31805801 C486.29597107 1929.80580704 485.37686951 1930.29355606 484.42991638 1930.79608536 C477.71481144 1934.34876382 470.97287722 1937.84737467 464.21507263 1941.31805801 C463.26438904 1941.80774063 462.31370544 1942.29742325 461.33421326 1942.80194473 C382.6398184 1983.20141995 297.66462762 2011.20866941 211.21507263 2029.31805801 C210.08023437 2029.55655472 210.08023437 2029.55655472 208.92247009 2029.79986954 C170.31975192 2037.87853301 131.15361938 2043.037587 91.89085388 2046.59149551 C91.23029495 2046.65157288 90.56973602 2046.71165024 89.88916016 2046.77354813 C87.66538812 2046.96789946 85.44038593 2047.14223404 83.21507263 2047.31805801 C82.26450989 2047.4039418 81.31394714 2047.48982559 80.33457947 2047.57831192 C67.52910695 2048.60817589 54.70244821 2048.50056425 41.86377859 2048.51824665 C39.80956995 2048.52121581 37.75536642 2048.5253274 35.70116043 2048.52975082 C29.20900821 2048.54338798 22.71686824 2048.55306723 16.22470272 2048.55695271 C9.58210552 2048.56095493 2.9396527 2048.57313329 -3.70289612 2048.59930801 C-35.17120973 2048.72057743 -66.46510611 2048.81256937 -97.78492737 2045.31805801 C-99.79281707 2045.11474423 -101.80093724 2044.91368602 -103.80934143 2044.71551895 C-108.66314895 2044.22490317 -113.50561864 2043.66469156 -118.34742737 2043.06805801 C-119.19282074 2042.9654567 -120.03821411 2042.86285538 -120.90922546 2042.75714493 C-209.70182462 2031.91862126 -296.53902013 2009.63383418 -451.57789612 1943.89813614 C-454.60070893 1942.40882093 -457.62959494 1940.93262022 -460.65992737 1939.45868301 C-473.00819898 1933.41388531 -484.98113411 1926.81760718 -496.89820862 1919.96649551 C-499.75600791 1918.33457224 -502.62671979 1916.72843048 -505.50367737 1915.13055801 C-542.89594018 1894.33221089 -578.75373541 1870.24102667 -612.78492737 1844.31805801 C-613.35694885 1843.88251602 -613.92897034 1843.44697403 -614.51832581 1842.9982338 C-618.28792532 1840.12294689 -622.03994007 1837.22532116 -625.78492737 1834.31805801 C-626.34921448 1833.88138809 -626.91350159 1833.44471817 -627.49488831 1832.99481583 C-635.04456365 1827.14623855 -642.43061168 1821.14657239 -649.69117737 1814.94305801 C-652.58044057 1812.47889837 -655.52011195 1810.08144802 -658.47242737 1807.69305801 C-662.92396545 1804.06971306 -667.20875192 1800.29841929 -671.45289612 1796.43524551 C-673.54316626 1794.53754632 -675.65478852 1792.67072387 -677.78492737 1790.81805801 C-693.67828211 1776.94691938 -708.87199007 1762.39921622 -723.76734924 1747.46600723 C-726.30591587 1744.92202473 -728.84986067 1742.38350673 -731.39430237 1739.84540176 C-733.03524849 1738.20379561 -734.67588481 1736.5618797 -736.31617737 1734.91962051 C-737.06419617 1734.17362595 -737.81221497 1733.42763138 -738.582901 1732.65903091 C-742.62567244 1728.59835744 -746.50645049 1724.45252693 -750.23783875 1720.10326004 C-752.79162131 1717.15642316 -755.48452728 1714.34151487 -758.15992737 1711.50555801 C-762.88365846 1706.46239983 -767.35327027 1701.29114826 -771.67555237 1695.89618301 C-773.80477883 1693.29379512 -776.01942094 1690.802303 -778.28492737 1688.31805801 C-782.9890604 1683.14269922 -787.40390484 1677.76796566 -791.78492737 1672.31805801 C-792.71065906 1671.17348668 -793.63644266 1670.02895732 -794.56227112 1668.88446426 C-817.34604154 1640.64077881 -838.7396379 1611.26858723 -858.27320862 1580.68280411 C-859.72823266 1578.40674421 -861.19337199 1576.1374799 -862.65992737 1573.86883926 C-876.32447675 1552.61054491 -888.94432731 1530.63883143 -900.78492737 1508.31805801 C-901.27267639 1507.39895645 -901.76042542 1506.47985489 -902.26295471 1505.53290176 C-905.81563317 1498.81779682 -909.31424403 1492.0758626 -912.78492737 1485.31805801 C-913.51945129 1483.89203262 -913.51945129 1483.89203262 -914.26881409 1482.43719864 C-954.66828931 1403.74280378 -982.67553876 1318.767613 -1000.78492737 1232.31805801 C-1001.02342407 1231.18321976 -1001.02342407 1231.18321976 -1001.26673889 1230.02545547 C-1008.60042893 1194.98248447 -1013.57886603 1159.43806173 -1017.09742737 1123.81805801 C-1017.17278717 1123.06786392 -1017.24814697 1122.31766983 -1017.32579041 1121.54474258 C-1017.89281452 1115.8082042 -1018.35739683 1110.06656355 -1018.78492737 1104.31805801 C-1018.91413071 1102.6128096 -1018.91413071 1102.6128096 -1019.04594421 1100.87311172 C-1020.81627933 1076.76527274 -1021.14880794 1052.71213291 -1021.10298538 1028.54569626 C-1021.09734208 1025.52236757 -1021.09452353 1022.4990445 -1021.09190369 1019.47571182 C-1021.05669135 991.52465762 -1020.84311525 963.68189279 -1018.03816223 935.84631729 C-1017.77119744 933.18098044 -1017.51726921 930.51460031 -1017.26490784 927.84784317 C-1008.49171762 836.15552045 -987.8164574 745.82799899 -915.36500549 569.52508926 C-913.87569029 566.50227645 -912.39948957 563.47339045 -910.92555237 560.44305801 C-904.88075467 548.0947864 -898.28447653 536.12185127 -891.43336487 524.20477676 C-889.80144159 521.34697747 -888.19529984 518.47626559 -886.59742737 515.59930801 C-865.79908025 478.20704521 -841.70789602 442.34924997 -815.78492737 408.31805801 C-815.34938538 407.74603653 -814.91384338 407.17401505 -814.46510315 406.58465958 C-811.58981625 402.81506006 -808.69219051 399.06304531 -805.78492737 395.31805801 C-805.34825745 394.7537709 -804.91158752 394.1894838 -804.46168518 393.60809708 C-798.61310791 386.05842173 -792.61344174 378.6723737 -786.40992737 371.41180801 C-783.94576773 368.52254481 -781.54831737 365.58287343 -779.15992737 362.63055801 C-775.53658242 358.17901993 -771.76528864 353.89423346 -767.90211487 349.65008926 C-766.00441568 347.55981912 -764.13759322 345.44819686 -762.28492737 343.31805801 C-748.41378873 327.42470327 -733.86608558 312.23099531 -718.93287659 297.33563614 C-716.38889409 294.79706951 -713.85037608 292.25312471 -711.31227112 289.70868301 C-709.67066497 288.06773689 -708.02874906 286.42710058 -706.38648987 284.78680801 C-705.6404953 284.03878922 -704.89450073 283.29077042 -704.12590027 282.52008438 C-700.06522679 278.47731294 -695.91939628 274.59653489 -691.57012939 270.86514664 C-688.62329252 268.31136407 -685.80838422 265.6184581 -682.97242737 262.94305801 C-677.92926919 258.21932692 -672.75801761 253.74971511 -667.36305237 249.42743301 C-664.76066447 247.29820655 -662.26917235 245.08356444 -659.78492737 242.81805801 C-654.60956858 238.11392499 -649.23483501 233.69908054 -643.78492737 229.31805801 C-642.64035604 228.39232632 -641.49582668 227.46654272 -640.35133362 226.54071426 C-612.10764817 203.75694384 -582.73545658 182.36334748 -552.14967346 162.82977676 C-549.87361356 161.37475272 -547.60434925 159.90961339 -545.33570862 158.44305801 C-524.07741426 144.77850863 -502.10570078 132.15865807 -479.78492737 120.31805801 C-478.86582581 119.83030899 -477.94672424 119.34255997 -476.99977112 118.84003067 C-470.28466618 115.28735221 -463.54273195 111.78874136 -456.78492737 108.31805801 C-455.35890198 107.58353409 -455.35890198 107.58353409 -453.90406799 106.8341713 C-373.06357391 65.33294947 -285.35740518 36.50384375 -95.22242737 4.06805801 C-94.43572662 3.99092575 -93.64902588 3.91379349 -92.83848572 3.83432388 C-86.82600367 3.25334389 -80.80869157 2.76611054 -74.78492737 2.31805801 C-73.627883 2.23085495 -72.47083862 2.14365189 -71.2787323 2.0538063 C-47.51870331 0.31925952 -23.81758025 -0.04634621 0 0 Z M-71.34156799 64.55096817 C-76.97729063 65.1860688 -82.60898399 65.57535265 -88.26930237 65.91791153 C-109.84576377 67.24660906 -131.13833057 70.49746492 -152.4858551 73.80878067 C-155.52230351 74.2775168 -158.55996015 74.73760802 -161.59817505 75.19473648 C-164.32547355 75.60618264 -167.05194768 76.02293972 -169.77833557 76.44037247 C-171.15921479 76.65072233 -172.54040328 76.85905177 -173.92189026 77.06537247 C-181.76456435 78.23839432 -189.44575443 79.62776577 -197.1240387 81.65082169 C-200.91722614 82.6019898 -204.73184115 83.18827935 -208.59742737 83.75555801 C-216.04405153 84.93556034 -223.23147131 86.5815882 -230.4846344 88.66424942 C-233.23482175 89.44593077 -235.99199686 90.20030356 -238.74977112 90.95477676 C-249.01878007 93.77664054 -259.20666204 96.67672052 -269.27711487 100.14618301 C-273.12890466 101.43297248 -277.00734171 102.57274172 -280.90992737 103.69305801 C-287.60800217 105.62482049 -294.23461752 107.73723931 -300.84742737 109.94305801 C-301.71577209 110.23229141 -302.58411682 110.52152481 -303.47877502 110.81952286 C-308.6238761 112.54912722 -313.7105734 114.39108815 -318.78492737 116.31805801 C-320.51302505 116.94600767 -322.24207712 117.57134234 -323.97242737 118.19305801 C-336.17942775 122.61870972 -336.17942775 122.61870972 -348.09742737 127.75555801 C-352.22215935 129.67417445 -356.37771843 131.28379064 -360.65992737 132.81805801 C-401.87850171 147.8850975 -442.45438573 169.34597069 -480.06129456 191.71014786 C-483.38514398 193.67239887 -486.73615877 195.58409957 -490.09034729 197.49383926 C-521.06089309 215.17452976 -550.61220091 235.48419501 -578.78492737 257.31805801 C-579.39336487 257.78856583 -580.00180237 258.25907364 -580.62867737 258.74383926 C-598.12216965 272.29348618 -615.18410519 286.44585717 -631.57008362 301.31805801 C-633.55905239 303.1140933 -635.57055931 304.87759105 -637.59742737 306.63055801 C-642.81189724 311.18023491 -647.87796761 315.8903958 -652.94264221 320.60516739 C-654.17023375 321.74653795 -655.39972751 322.88586603 -656.63111877 324.02313614 C-666.26016186 332.91912949 -675.63096262 342.05960095 -684.90992737 351.31805801 C-685.44903748 351.85457993 -685.98814758 352.39110184 -686.54359436 352.94388199 C-691.9455258 358.32530629 -697.27863741 363.72203953 -702.23756409 369.52118301 C-704.83237755 372.53440913 -707.56544617 375.41771553 -710.28492737 378.31805801 C-714.87703276 383.24331997 -719.40359149 388.20340533 -723.78492737 393.31805801 C-724.64086487 394.30676895 -725.49680237 395.29547989 -726.37867737 396.31415176 C-734.33448167 405.52296512 -742.09754597 414.88445682 -749.78492737 424.31805801 C-750.29523499 424.94293106 -750.8055426 425.56780411 -751.33131409 426.2116127 C-760.13121559 437.01056866 -768.50550793 448.11674938 -776.78492737 459.31805801 C-777.35388733 460.0855336 -777.92284729 460.85300919 -778.50904846 461.64374161 C-787.08126471 473.23700323 -795.03996583 485.1594567 -802.78492737 497.31805801 C-803.77052249 498.85456893 -804.75619775 500.39102843 -805.74195862 501.92743301 C-834.73353995 547.29352939 -860.43311862 594.98891108 -881.90992737 644.38055801 C-882.43022522 645.57414932 -882.95052307 646.76774063 -883.48658752 647.99750137 C-886.48795813 654.99170547 -889.17823803 662.01924298 -891.65357971 669.21454239 C-892.72344733 672.14940583 -893.9390216 674.93836532 -895.28492737 677.75555801 C-897.86347336 683.2369954 -899.73093398 688.8842733 -901.57398987 694.64227676 C-903.26683466 699.78087981 -905.2066016 704.81075495 -907.14430237 709.86102676 C-912.72179182 724.47843591 -917.8072683 739.25215358 -921.86891174 754.36615372 C-923.54759836 760.58535953 -925.43669376 766.72918623 -927.34742737 772.88055801 C-929.87434589 781.06061216 -932.0917197 789.23921255 -933.94898987 797.59540176 C-934.70057368 800.94240817 -935.53641439 804.2513033 -936.40992737 807.56805801 C-937.68471408 812.58496057 -938.49775906 817.59250361 -939.15992737 822.72430801 C-939.7035588 825.85018875 -940.41537165 828.8187439 -941.21852112 831.88446426 C-942.89556552 838.45517923 -943.91601391 845.04401494 -944.84742737 851.75555801 C-945.17128194 854.02514126 -945.49549988 856.29467269 -945.82008362 858.56415176 C-945.97751038 859.67717667 -946.13493713 860.79020157 -946.2971344 861.9369545 C-946.79087697 865.35929729 -947.3128005 868.77626787 -947.84352112 872.19305801 C-948.55047805 876.75026406 -949.20204796 881.30599554 -949.78492737 885.88055801 C-950.3644625 890.31762389 -951.00593408 894.72437721 -951.78492737 899.13055801 C-954.26536368 913.85814859 -955.21657347 928.70092339 -956.08766174 943.59271622 C-956.16436096 944.8775087 -956.24106018 946.16230118 -956.32008362 947.48602676 C-956.38590637 948.63353409 -956.45172913 949.78104141 -956.51954651 950.96332169 C-956.78492737 954.31805801 -956.78492737 954.31805801 -957.26687622 957.48732376 C-957.83008209 961.65195507 -958.12766699 965.77010857 -958.33912659 969.96454239 C-958.40229222 971.20187244 -958.40229222 971.20187244 -958.46673393 972.46419907 C-958.91360359 981.96659236 -958.92980421 991.46337745 -958.91773987 1000.97430801 C-958.91841653 1002.89703763 -958.91938953 1004.81976716 -958.92063904 1006.74249649 C-958.92209902 1010.73920902 -958.92001692 1014.73589893 -958.91529846 1018.7326088 C-958.90960226 1023.7982628 -958.91289049 1028.86386377 -958.91887093 1033.92951584 C-958.92252292 1037.89002236 -958.92131691 1041.85051678 -958.91874313 1045.81102371 C-958.91808662 1047.67651247 -958.91885637 1049.54200241 -958.92122269 1051.40748978 C-958.93054902 1060.82039943 -958.82173615 1070.20710683 -958.33912659 1079.60907364 C-958.30040499 1080.36876198 -958.26168339 1081.12845032 -958.22178841 1081.91115952 C-957.94602266 1086.75011875 -957.4186071 1091.51306201 -956.78492737 1096.31805801 C-956.66788714 1097.92721037 -956.57011659 1099.53805466 -956.50367737 1101.15008926 C-956.44760315 1102.3769545 -956.44760315 1102.3769545 -956.39039612 1103.62860489 C-956.31926174 1105.31607044 -956.248968 1107.00357162 -956.17945862 1108.69110489 C-956.14207581 1109.50256973 -956.10469299 1110.31403458 -956.06617737 1111.15008926 C-956.02073792 1112.24414078 -956.02073792 1112.24414078 -955.97438049 1113.36029434 C-955.83782736 1115.53165811 -955.83782736 1115.53165811 -954.78492737 1118.31805801 C-954.62648785 1119.90973578 -954.51262446 1121.50604187 -954.42555237 1123.10321426 C-953.35183105 1140.46241627 -951.0518287 1157.46873217 -948.35914612 1174.63641739 C-947.89264113 1177.62744425 -947.44085745 1180.61952879 -947.00367737 1183.61493301 C-945.14308342 1196.18923189 -942.64539584 1208.64603624 -940.19117737 1221.11493301 C-939.41174762 1225.07906401 -938.64016423 1229.0420547 -937.94117737 1233.02118301 C-933.72266891 1257.02650497 -926.84976695 1280.72904572 -918.95680237 1303.76727676 C-917.66724223 1307.67464398 -916.53485323 1311.61110977 -915.40992737 1315.56805801 C-912.70101768 1325.00548013 -909.27283874 1334.14570942 -905.78492737 1343.31805801 C-904.72012244 1346.12969164 -903.65798909 1348.94232136 -902.59742737 1351.75555801 C-902.34944397 1352.41072403 -902.10146057 1353.06589005 -901.84596252 1353.74090958 C-900.3671225 1357.67452445 -899.00794275 1361.63003414 -897.72242737 1365.63055801 C-896.13561329 1370.4963489 -894.16561384 1375.06727565 -891.99195862 1379.69696426 C-890.89973771 1382.06874494 -889.916732 1384.44699763 -888.97242737 1386.88055801 C-886.73935362 1392.57717472 -884.21259676 1398.13758719 -881.70753479 1403.7182045 C-879.97282955 1407.59632787 -878.29337363 1411.46991831 -876.78492737 1415.44305801 C-874.89031677 1420.2903085 -872.54757604 1424.8949207 -870.19459534 1429.53046036 C-867.17136211 1435.49884602 -864.28130285 1441.5253576 -861.40992737 1447.56805801 C-852.97722698 1465.24064458 -844.16448928 1482.51280772 -834.40211487 1499.49383926 C-832.85939719 1502.18800564 -831.33456942 1504.89137353 -829.81617737 1507.59930801 C-810.07863835 1542.70597009 -787.60803148 1576.59524126 -762.78492737 1608.31805801 C-761.92794321 1609.42205912 -761.07117726 1610.52622964 -760.21461487 1611.63055801 C-746.78231331 1628.89466014 -732.79420384 1645.75822091 -718.00758362 1661.88055801 C-716.11070973 1663.96078527 -714.25099794 1666.06362699 -712.40992737 1668.19305801 C-704.68321794 1677.06244982 -696.60975276 1685.5578438 -688.24586487 1693.82587051 C-685.51689682 1696.58949213 -682.98299129 1699.4724001 -680.45680237 1702.41962051 C-676.32397126 1707.11250817 -671.85303228 1711.44930676 -667.09742737 1715.50555801 C-663.30153822 1718.76238598 -659.79897424 1722.26441484 -656.28492737 1725.81805801 C-652.28599533 1729.85725727 -648.26634133 1733.77527416 -643.92945862 1737.45477676 C-641.62308077 1739.45867883 -639.39263752 1741.53072592 -637.16041565 1743.61639786 C-631.83144451 1748.59390662 -626.40840048 1753.34894607 -620.71852112 1757.91571426 C-617.23589178 1760.76766772 -613.85717556 1763.72632924 -610.47242737 1766.69305801 C-604.56099758 1771.85639494 -598.50593509 1776.77583343 -592.30055237 1781.57977676 C-589.32647828 1783.88327506 -586.40095136 1786.241365 -583.4826355 1788.61488724 C-577.60888435 1793.37421553 -571.63992746 1797.96674425 -565.50758362 1802.38837051 C-564.73260025 1802.94725967 -563.95761688 1803.50614883 -563.15914917 1804.08197403 C-554.39838738 1810.36238143 -545.45355526 1816.35898393 -536.47242737 1822.31805801 C-535.62285461 1822.88322128 -534.77328186 1823.44838455 -533.89796448 1824.03067398 C-522.00693896 1831.93806076 -510.07443808 1839.74402412 -497.82691956 1847.0919838 C-495.88189783 1848.259834 -493.94564794 1849.44091988 -492.01148987 1850.62665176 C-472.04574689 1862.81657492 -451.43715936 1873.79517495 -430.59547424 1884.39490128 C-427.69625954 1885.87314502 -424.80405103 1887.36503328 -421.90992737 1888.85321426 C-381.02619438 1909.73701151 -338.2449061 1926.61962452 -294.78492737 1941.31805801 C-294.13646851 1941.53786331 -293.48800964 1941.75766861 -292.81990051 1941.98413467 C-210.03050565 1969.99718934 -122.79641775 1984.47655379 89.21507263 1984.31805801 C90.52949341 1984.21267715 90.52949341 1984.21267715 91.87046814 1984.10516739 C132.34227801 1980.84656143 172.48420014 1974.63089483 212.21507263 1966.31805801 C213.6797699 1966.01472549 213.6797699 1966.01472549 215.17405701 1965.70526505 C288.73568644 1950.36835929 363.3345247 1922.82295871 430.17112732 1888.3576088 C432.52063429 1887.16264933 434.8859963 1886.0029918 437.25413513 1884.84540176 C449.95919097 1878.61528968 462.2901374 1871.87178698 474.56077576 1864.8288002 C477.70521189 1863.03908618 480.87464776 1861.29891526 484.05027771 1859.56537247 C507.30110486 1846.83995641 529.29989089 1832.18556482 551.21507263 1817.31805801 C551.90327087 1816.85155838 552.59146912 1816.38505875 553.30052185 1815.90442276 C561.64026116 1810.24161591 569.86056168 1804.48382803 577.84007263 1798.31805801 C578.72759216 1797.63654678 579.61511169 1796.95503555 580.52952576 1796.25287247 C583.09522441 1794.27952647 585.6559398 1792.29990774 588.21507263 1790.31805801 C588.9043988 1789.7861586 589.59372498 1789.25425919 590.30393982 1788.70624161 C597.7426585 1782.96022264 604.99428415 1777.03238422 612.14085388 1770.92743301 C614.92240351 1768.55536766 617.74855924 1766.24313089 620.59007263 1763.94305801 C631.04114966 1755.41558502 641.14394187 1746.52195203 650.94065857 1737.25091934 C653.83114998 1734.51907225 656.74829393 1731.84869671 659.77366638 1729.26654434 C665.01303685 1724.69167372 669.90248603 1719.77527765 674.81272888 1714.85321426 C675.81571166 1713.85090721 676.81884266 1712.84874845 677.82211304 1711.84672928 C679.91216401 1709.75814267 682.00042151 1707.66778413 684.08738708 1705.57611465 C686.74205133 1702.91575392 689.40118147 1700.25990959 692.06168461 1697.6053896 C694.13032212 1695.54039195 696.19653962 1693.47298598 698.26206779 1691.40487862 C699.24079268 1690.42549391 700.2202407 1689.4468312 701.20047188 1688.46895409 C706.22441573 1683.45443468 711.14747061 1678.41018261 715.75952148 1673.01172256 C718.11957204 1670.26559168 720.6133467 1667.64601032 723.09007263 1665.00555801 C727.52972556 1660.23394906 731.73166405 1655.33637811 735.81272888 1650.25165176 C738.66468234 1646.76902242 741.62334386 1643.39030621 744.59007263 1640.00555801 C749.75460084 1634.09276435 754.67479672 1628.03591761 759.48069763 1621.82977676 C761.79330436 1618.84418484 764.15778391 1615.90451442 766.5375824 1612.97235489 C789.00285019 1585.20273663 808.99439378 1555.02338837 827.21507263 1524.31805801 C827.77017517 1523.38606583 828.32527771 1522.45407364 828.89720154 1521.49383926 C837.33791844 1507.28278356 845.44033162 1492.90370798 853.21507263 1478.31805801 C853.72312439 1477.36511856 854.23117615 1476.41217911 854.75462341 1475.4303627 C861.23749917 1463.22849752 867.44359715 1450.93286925 873.25071716 1438.39520645 C874.11445016 1436.53479117 874.99015333 1434.67994421 875.86741638 1432.82587051 C877.30420746 1429.7836674 878.72213315 1426.73413514 880.12767029 1423.67743301 C880.923027 1421.95171966 881.72280132 1420.22804041 882.52513123 1418.50555801 C889.77683882 1402.89475122 896.40685234 1387.10734614 902.65257263 1371.06805801 C902.98723541 1370.21004593 903.32189819 1369.35203384 903.66670227 1368.46802139 C907.80996272 1357.8207003 911.76907093 1347.12326789 915.51496887 1336.32989883 C916.20407956 1334.34964807 916.90024537 1332.37203536 917.59910583 1330.39520645 C923.45837963 1313.81371259 928.92191753 1297.23070977 933.43870544 1280.22333145 C934.21872474 1277.30439134 935.0217479 1274.39272958 935.83226013 1271.48212051 C938.89008286 1260.48204769 941.76528204 1249.46957391 944.21507263 1238.31805801 C944.43131287 1237.34707169 944.6475531 1236.37608536 944.87034607 1235.3756752 C955.06794338 1189.22770056 961.13237797 1142.00006517 964.34007263 1094.88055801 C964.45342957 1093.2157338 964.45342957 1093.2157338 964.56907654 1091.51727676 C965.84657339 1071.53872549 966.38916863 1051.58546926 966.34007263 1031.56805801 C966.33824478 1029.92426163 966.33824478 1029.92426163 966.33638 1028.24725723 C966.31784709 1013.93311141 966.1857927 999.62666451 965.77757263 985.31805801 C965.74823639 984.28050369 965.74823639 984.28050369 965.7183075 983.22198868 C965.20943695 965.87855094 964.2324598 948.5913326 962.59007263 931.31805801 C962.46618668 930.00693039 962.46618668 930.00693039 962.33979797 928.66931534 C959.15883787 895.45304368 954.92724863 862.01922779 948.21507263 829.31805801 C948.0820575 828.66714188 947.94904236 828.01622574 947.81199646 827.34558487 C934.33542096 761.61356861 912.78483539 697.45843121 885.21507263 636.31805801 C884.75278259 635.28068497 884.29049255 634.24331192 883.81419373 633.17450333 C871.09911605 604.67785047 857.28738378 576.41198524 841.48606873 549.4928627 C840.35149756 547.55149505 839.23924366 545.60036314 838.14085388 543.63837051 C836.1990658 540.17816115 834.22199951 536.74073066 832.21507263 533.31805801 C831.7724408 532.56315079 831.32980896 531.80824356 830.87376404 531.03046036 C820.39600375 513.27312344 808.95184942 496.18420149 797.41868591 479.10297012 C795.73093008 476.60009327 794.05172491 474.09150077 792.37132263 471.58368301 C785.83790371 461.87998708 778.9606188 452.50076759 771.75413513 443.28631973 C770.27655798 441.39668982 768.80744869 439.50077067 767.34007263 437.60321426 C762.00368529 430.72791804 756.49354604 424.02811331 750.84007263 417.41180801 C748.37591299 414.52254481 745.97846263 411.58287343 743.59007263 408.63055801 C739.96672768 404.17901993 736.19543391 399.89423346 732.33226013 395.65008926 C730.43456094 393.55981912 728.56773849 391.44819686 726.71507263 389.31805801 C723.35829841 385.46627561 719.94621215 381.66651536 716.51976013 377.87665176 C715.03717744 376.2307337 713.56252401 374.57762 712.09788513 372.91571426 C707.21865368 367.402004 702.11606481 362.17920562 696.88328552 357.00555801 C693.36353848 353.51122992 690.03625867 349.92091406 686.81663513 346.14618301 C682.71894746 341.46882245 678.25610179 337.16371524 673.52757263 333.13055801 C669.73168372 329.87373025 666.22911677 326.37170408 662.71507263 322.81805801 C658.69466857 318.75711877 654.65283075 314.81512583 650.29319763 311.11493301 C648.13394869 309.24791325 646.03910575 307.31857895 643.94725037 305.37665176 C638.73953866 300.54344754 633.4050066 295.95873657 627.86741638 291.50165176 C625.22239626 289.32408734 622.68294739 287.06487039 620.15257263 284.75555801 C616.21990131 281.18040226 612.18271798 277.80914536 608.00804138 274.52118301 C605.97769928 272.91962644 603.96102394 271.30688018 601.95335388 269.67743301 C591.58198791 261.27665522 580.94330283 253.256139 570.21507263 245.31805801 C569.47950134 244.77036758 568.74393005 244.22267715 567.98606873 243.65839005 C523.81307569 210.82424354 475.23997963 183.38538545 425.90701294 159.12659073 C422.5613586 157.48093398 419.22256264 155.82284081 415.89207458 154.1466713 C415.17356827 153.78537125 414.45506195 153.4240712 413.71478271 153.05182266 C412.3380601 152.35870074 410.96210407 151.66405323 409.58706665 150.96759415 C405.36008082 148.8407046 401.10382931 146.98203555 396.68382263 145.30243301 C393.7402433 144.12872733 390.89452111 142.7930289 388.02757263 141.44305801 C382.63687431 138.92231922 377.18832454 136.66469216 371.65061951 134.49603653 C368.04317427 133.0755818 364.52359884 131.55471141 361.02757263 129.88055801 C355.11442058 127.1310745 348.98299575 125.08634103 342.82176208 122.97455215 C337.72227491 121.21933345 332.70614712 119.36134724 327.71507263 117.31805801 C312.51869044 111.13424881 296.88628547 106.14318121 281.21507263 101.31805801 C280.28195251 101.02898575 279.3488324 100.73991348 278.38743591 100.44208145 C267.50651418 97.07387691 256.62982585 93.71928763 245.5856781 90.92059708 C243.74509195 90.45277353 241.90583199 89.9797309 240.06712341 89.50458145 C236.40993941 88.56010775 232.75031219 87.6256153 229.09007263 86.69305801 C227.92194031 86.39141739 226.75380798 86.08977676 225.55027771 85.77899551 C218.7262567 84.0572573 211.9572514 82.7031179 204.98606873 81.7284584 C202.6079811 81.37625001 200.30295602 80.93332977 197.96507263 80.38055801 C185.57295933 77.49657528 172.87380113 75.71180021 160.30198669 73.79217911 C158.02466577 73.44240394 155.74807801 73.0878474 153.47190857 72.73065567 C135.46406504 69.90521299 117.62365912 67.52916622 99.40281677 66.53583145 C97.21507263 66.31805801 97.21507263 66.31805801 94.21507263 65.31805801 C91.60547771 65.10755081 89.01243743 64.9431673 86.39866638 64.81805801 C85.24202232 64.75714981 85.24202232 64.75714981 84.06201172 64.69501114 C81.59238445 64.56541198 79.12252335 64.44132683 76.65257263 64.31805801 C74.20765589 64.19417901 71.76282407 64.06902364 69.31811523 63.94110489 C67.79882399 63.86178877 66.27940918 63.78478889 64.75985718 63.71063614 C61.11698452 63.52222104 57.52527434 63.23826208 53.90452576 62.7951088 C45.45378447 61.9235972 36.92273836 62.17476002 28.43772888 62.18524551 C26.50213611 62.18457025 24.56654342 62.18359838 22.63095093 62.18234634 C18.58045136 62.18087667 14.52997391 62.18299828 10.47947693 62.18768692 C5.34294119 62.19334924 0.20645812 62.19012283 -4.93007565 62.18411446 C-8.92920308 62.18045947 -12.92831853 62.18167039 -16.92744637 62.18424225 C-18.8180549 62.18489975 -20.7086646 62.18412532 -22.59927177 62.1817627 C-38.93081689 62.16584453 -55.10755343 62.71995049 -71.34156799 64.55096817 Z " fill="#F4B2A8" transform="translate(1020.7849273681641,-0.3180580139160156)"/>
<path d="M0 0 C44.55 0 89.1 0 135 0 C134.21312572 3.93437141 133.29716812 7.1777485 131.91235352 10.8984375 C131.25595886 12.6701683 131.25595886 12.6701683 130.58630371 14.47769165 C130.10060125 15.77683059 129.61479882 17.07593215 129.12890625 18.375 C128.61896807 19.74650304 128.10933206 21.11811846 127.59997559 22.48983765 C126.21580187 26.2141763 124.82667613 29.93665009 123.43648148 33.65874481 C122.26089135 36.80796085 121.08806727 39.95820422 119.91513729 43.10841179 C110.07902932 69.52265067 100.14847928 95.90119575 90.1953125 122.27149963 C89.65103836 123.71355059 89.10676753 125.1556028 88.5625 126.59765625 C88.2931665 127.31124235 88.02383301 128.02482845 87.74633789 128.76003838 C81.327412 145.76840795 74.94279674 162.78960922 68.5625 179.8125 C67.99830401 181.31768905 67.4341052 182.82287704 66.86990356 184.32806396 C64.60908823 190.35963437 62.34845296 196.39127223 60.08815002 202.42303467 C56.14217377 212.95311217 52.19471624 223.48263327 48.24609375 234.01171875 C47.96777269 234.75386942 47.68945164 235.49602009 47.40269661 236.26066017 C45.99731629 240.0081217 44.59191036 243.75557363 43.18649292 247.50302124 C40.65545422 254.2518967 38.12464273 261.00085737 35.59381294 267.74981117 C34.18755116 271.49987756 32.78127485 275.24993851 31.375 279 C30.81249993 280.49999997 30.24999993 281.99999997 29.6875 283.5 C1 360 1 360 -27.6875 436.5 C-27.96593781 437.24250094 -28.24437563 437.98500189 -28.53125095 438.75000286 C-29.0937475 440.24999343 -29.65624432 441.74998389 -30.21874142 443.24997425 C-31.6250466 447.00011771 -33.03134695 450.75026298 -34.43763733 454.50041199 C-36.96822315 461.2487009 -39.49884271 467.99697715 -42.02964497 474.7451849 C-43.43515202 478.49287463 -44.84063044 482.24057511 -46.24609375 485.98828125 C-46.52440977 486.73041681 -46.80272579 487.47255238 -47.08947563 488.2371769 C-51.03996636 498.77141684 -54.98884276 509.30626081 -58.93674088 519.84147263 C-70.5328375 550.78565233 -82.14829325 581.72234472 -93.80796051 612.64263153 C-105.19500954 642.84048563 -116.53257544 673.05676724 -127.85745239 703.27798462 C-131.9620918 714.23144751 -136.0684074 725.18428094 -140.17578125 736.13671875 C-140.47349867 736.93059305 -140.77121609 737.72446735 -141.07795525 738.54239845 C-142.56261948 742.50128605 -144.04730934 746.46016403 -145.53201294 750.41903687 C-148.21420344 757.57096715 -150.89614741 764.72298987 -153.578125 771.875 C-160.71875 790.91666667 -167.859375 809.95833333 -175 829 C-220.87 829 -266.74 829 -314 829 C-311.98682817 822.28942724 -309.89683772 815.82700191 -307.3671875 809.32421875 C-307.01843063 808.41833008 -306.66967377 807.51244141 -306.31034851 806.57910156 C-305.56002711 804.63102251 -304.80810474 802.68355946 -304.05471802 800.73666382 C-302.01429886 795.46288469 -299.98649794 790.18425131 -297.95703125 784.90625 C-297.54071945 783.82445969 -297.12440765 782.74266937 -296.69548035 781.62809753 C-292.60737979 770.99768471 -288.57883812 760.34519046 -284.5625 749.6875 C-283.15139797 745.94517806 -281.7398858 742.20301098 -280.328125 738.4609375 C-279.79849403 737.05701248 -279.79849403 737.05701248 -279.25816345 735.62472534 C-275.12751821 724.68051487 -270.97031873 713.74640932 -266.8125 702.8125 C-265.21087207 698.60028529 -263.60930582 694.38804714 -262.0078125 690.17578125 C-261.39956131 688.57596657 -261.39956131 688.57596657 -260.77902222 686.9438324 C-255.90856872 674.13173059 -251.04790728 661.31591556 -246.1875 648.5 C-245.72988281 647.29340729 -245.27226563 646.08681458 -244.80078125 644.84365845 C-241.53363645 636.22918819 -238.26677906 627.61460896 -235 619 C-231.2710348 609.16659025 -227.54194125 599.33322921 -223.8125 589.5 C-223.35418793 588.29158447 -222.89587585 587.08316895 -222.42367554 585.83813477 C-215.73576781 568.20507751 -209.04019331 550.57494769 -202.3394165 532.94677734 C-193.14670077 508.76217347 -183.97235071 484.57061036 -174.79833984 460.37890625 C-170.65684647 449.45801414 -166.51437953 438.53749131 -162.37197876 427.61694336 C-160.0812786 421.57797763 -157.79064257 415.53898757 -155.5 409.5 C-154.58333364 407.08333322 -153.66666697 404.66666655 -152.75 402.25 C-152.29625 401.05375 -151.8425 399.8575 -151.375 398.625 C-125.24999994 329.74999983 -125.24999994 329.74999983 -123.87504578 326.12512207 C-122.9582253 323.70804897 -122.04140604 321.2909754 -121.12458801 318.87390137 C-118.83528476 312.83844935 -116.5459603 306.80300539 -114.2565918 300.76757812 C-110.10336154 289.81841742 -105.95029487 278.86919479 -101.79800415 267.91967773 C-92.31973735 242.92569285 -82.83724564 217.93333556 -73.3394165 192.94677734 C-66.94868135 176.13374814 -60.56601651 159.31766834 -54.1875 142.5 C-53.72876495 141.29056732 -53.27002991 140.08113464 -52.7973938 138.83505249 C-48.14282648 126.56343836 -43.48909114 114.29150993 -38.83830261 102.01846313 C-36.98212344 97.12041076 -35.12543512 92.22255144 -33.26870728 87.32470703 C-32.42143181 85.08928742 -31.57438135 82.85378249 -30.72763062 80.61816406 C-20.54123823 53.72395605 -10.25831087 26.86700465 0 0 Z " fill="#FEFEFE" transform="translate(1113,610)"/>
<path d="M0 0 C4.5431463 9.08235236 9.08244004 18.16661429 13.61641121 27.25355053 C17.01221992 34.05927454 20.4099084 40.86405865 23.80833244 47.66847706 C26.08192685 52.22092762 28.35475162 56.77375937 30.62597656 61.32739258 C32.84445807 65.77519717 35.06487645 70.2220298 37.28665543 74.6681881 C38.12861979 76.35396206 38.96988086 78.04008748 39.81042099 79.72657204 C40.97837052 82.06970277 42.14879532 84.41158091 43.31982422 86.75317383 C43.66474411 87.44660889 44.009664 88.14004395 44.36503601 88.85449219 C45.78724284 91.69278367 47.2360525 94.35407876 49 97 C49.02026367 99.45092773 49.02026367 99.45092773 48 102 C45.87092873 103.52692136 43.99896331 104.6404034 41.67578125 105.78515625 C40.70245094 106.29146324 40.70245094 106.29146324 39.7094574 106.80799866 C37.58501362 107.90893322 35.44906591 108.98530924 33.3125 110.0625 C31.83460933 110.82406653 30.35772576 111.58759045 28.88183594 112.35302734 C25.93892365 113.87825441 22.9925534 115.39643626 20.04345703 116.90966797 C14.89667046 119.55944376 9.8179721 122.32795953 4.75 125.125 C-3.39052935 129.59089425 -11.56254369 133.99578285 -19.75 138.375 C-20.94124527 139.01228509 -22.13248876 139.6495735 -23.32373047 140.28686523 C-23.9135672 140.6024086 -24.50340393 140.91795197 -25.1111145 141.24305725 C-25.99583939 141.71635719 -25.99583939 141.71635719 -26.8984375 142.19921875 C-27.48897919 142.51511459 -28.07952087 142.83101044 -28.68795776 143.15647888 C-42.77959959 150.69605815 -56.85337737 158.26842069 -70.875 165.9375 C-80.92382558 171.43298024 -91.01745845 176.84359496 -101.11660767 182.24580383 C-102.00248062 182.71967781 -102.00248062 182.71967781 -102.90625 183.203125 C-103.4972348 183.5192424 -104.0882196 183.8353598 -104.69711304 184.16105652 C-120.14679224 192.42735004 -135.56234627 200.75705143 -150.96630859 209.1081543 C-164.84309437 216.62882176 -178.74630202 224.10054504 -192.6484375 231.57421875 C-203.61416266 237.47137083 -214.56864973 243.38701065 -225.48828125 249.36914062 C-230.81651089 252.28216544 -236.16249149 255.15951872 -241.5234375 258.01171875 C-242.48568741 258.52432503 -242.48568741 258.52432503 -243.46737671 259.04728699 C-246.63850338 260.73644375 -249.81146564 262.42196123 -252.98779297 264.10131836 C-254.70313232 265.01409546 -254.70313232 265.01409546 -256.453125 265.9453125 C-257.47567383 266.48687988 -258.49822266 267.02844727 -259.55175781 267.58642578 C-262.07507411 268.90254405 -262.07507411 268.90254405 -264 271 C-263.14583496 271.45213867 -262.29166992 271.90427734 -261.41162109 272.37011719 C-246.95599567 280.02444625 -232.5042511 287.68155139 -218.16064453 295.54443359 C-210.88024664 299.53141473 -203.56939945 303.46015781 -196.25 307.375 C-195.05729167 308.01302083 -193.86458333 308.65104167 -192.671875 309.2890625 C-192.08140381 309.6049231 -191.49093262 309.92078369 -190.88256836 310.24621582 C-189.99710327 310.71988586 -189.99710327 310.71988586 -189.09375 311.203125 C-188.50279541 311.51922729 -187.91184082 311.83532959 -187.30297852 312.16101074 C-171.8532578 320.42729868 -156.43768356 328.75703526 -141.03369141 337.1081543 C-130.46130004 342.83797106 -119.87205858 348.53638725 -109.28222656 354.23388672 C-102.77223224 357.73680988 -96.26369388 361.24243749 -89.75488281 364.74755859 C-84.31363164 367.6776519 -78.87202929 370.60708908 -73.4296875 373.53515625 C-61.95542631 379.70940155 -50.48901859 385.89770527 -39.03417969 392.10791016 C-28.46159791 397.83775741 -17.87221887 403.53630102 -7.28222656 409.23388672 C-4.0185798 410.99000251 -0.75530418 412.7468057 2.5078125 414.50390625 C3.58119873 415.08164795 4.65458496 415.65938965 5.76049805 416.25463867 C7.90611481 417.41064246 10.05082238 418.5683355 12.19458008 419.7277832 C17.28528317 422.47828942 22.38393322 425.20969317 27.51651001 427.88116455 C29.35373853 428.83844891 31.18801289 429.80116724 33.02148438 430.765625 C35.33865382 431.98236262 37.66140601 433.18854154 39.99023438 434.3828125 C41.02599609 434.929375 42.06175781 435.4759375 43.12890625 436.0390625 C44.04744385 436.51553223 44.96598145 436.99200195 45.91235352 437.48291016 C48 439 48 439 48.71925259 440.87133217 C49.21123094 444.60158379 47.04486505 447.7028733 45.38500977 450.94287109 C44.98835617 451.74026703 44.59170258 452.53766296 44.18302917 453.35922241 C42.86403076 456.00325033 41.52799709 458.63826471 40.19140625 461.2734375 C39.26655792 463.11701438 38.34265726 464.96106695 37.41966248 466.80557251 C35.47723034 470.68121693 33.52700118 474.55279736 31.57055664 478.42138672 C29.08197482 483.34244349 26.60698024 488.27016239 24.13722324 493.20068932 C21.76446529 497.93579566 19.38426771 502.66715034 17.00390625 507.3984375 C16.55864656 508.28519543 16.11338688 509.17195335 15.65463448 510.08558273 C10.38504111 520.56740721 4.95652623 530.88978489 -1 541 C-4.69807341 539.79511809 -8.08347275 538.56361743 -11.484375 536.671875 C-12.32323242 536.2092627 -13.16208984 535.74665039 -14.02636719 535.27001953 C-15.37456543 534.51760986 -15.37456543 534.51760986 -16.75 533.75 C-18.72876182 532.65812016 -20.70794605 531.56700556 -22.6875 530.4765625 C-23.72132813 529.90583008 -24.75515625 529.33509766 -25.8203125 528.74707031 C-31.11214435 525.83948825 -36.43109567 522.98266722 -41.75 520.125 C-42.83345703 519.54218262 -43.91691406 518.95936523 -45.03320312 518.35888672 C-48.35514802 516.57199394 -51.67751336 514.78588526 -55 513 C-68.24512496 505.88055124 -81.48290884 498.74958613 -94.67724609 491.53637695 C-102.82902075 487.0838691 -111.00678907 482.68031154 -119.1875 478.28125 C-127.45255507 473.83609627 -135.70640717 469.37064177 -143.95605469 464.89697266 C-151.33782933 460.89578413 -158.72994735 456.91408492 -166.125 452.9375 C-174.09709511 448.64990748 -182.05746373 444.34210331 -190 440 C-202.30215694 433.27537351 -214.65086237 426.63784244 -227 420 C-240.24657066 412.87977415 -253.48544101 405.74739732 -266.68164062 398.53417969 C-278.09210616 392.30243662 -289.54827181 386.15547172 -301 380 C-314.24657066 372.87977415 -327.48544101 365.74739732 -340.68164062 358.53417969 C-352.09210616 352.30243662 -363.54827181 346.15547172 -375 340 C-379.41707462 337.62575767 -383.83366764 335.25062266 -388.25 332.875 C-389.68230957 332.10567139 -389.68230957 332.10567139 -391.14355469 331.32080078 C-401.78862426 325.59442642 -412.38770271 319.78852579 -423 314 C-423 285.29 -423 256.58 -423 227 C-414.75 222.71 -406.5 218.42 -398 214 C-389.823267 209.56130664 -389.823267 209.56130664 -381.66015625 205.09765625 C-375.4593013 201.69598816 -369.23034135 198.34727067 -363 195 C-354.98586774 190.69220548 -346.9831614 186.36492548 -339 182 C-325.59146183 174.67048761 -312.12775101 167.44381458 -298.66796875 160.20898438 C-287.42989568 154.1673646 -276.19576185 148.11975184 -265 142 C-251.59136493 134.67066233 -238.12775278 127.44381553 -224.66796875 120.20898438 C-212.53395736 113.68570563 -200.41067095 107.14471752 -188.32275391 100.53637695 C-180.17097925 96.0838691 -171.99321093 91.68031154 -163.8125 87.28125 C-156.53464628 83.36703789 -149.26429005 79.43932346 -142 75.5 C-133.63362768 70.96303265 -125.25730196 66.44496426 -116.875 61.9375 C-108.90290489 57.64990748 -100.94253627 53.34210331 -93 49 C-79.59141337 41.67057498 -66.1277519 34.44381506 -52.66796875 27.20898438 C-40.99505798 20.93359463 -29.32665978 14.65032838 -17.6875 8.3125 C-16.3267334 7.57265869 -16.3267334 7.57265869 -14.93847656 6.81787109 C-11.60216289 4.99777345 -8.30167371 3.18940424 -5.08203125 1.16796875 C-3 0 -3 0 0 0 Z " fill="#FEFEFE" transform="translate(635,770)"/>
<path d="M0 0 C3.3582842 1.29568372 6.55519335 2.73415258 9.74609375 4.3984375 C10.65399658 4.8713623 11.56189941 5.34428711 12.49731445 5.83154297 C13.46757568 6.34088379 14.43783691 6.85022461 15.4375 7.375 C16.45739014 7.90883301 17.47728027 8.44266602 18.52807617 8.99267578 C27.16434004 13.52882794 35.73147002 18.18556198 44.28515625 22.875 C50.42397279 26.23838428 56.58530847 29.55933475 62.75 32.875 C63.83482666 33.45862305 64.91965332 34.04224609 66.03735352 34.64355469 C69.35797332 36.42952491 72.6789262 38.21487416 76 40 C89.24512496 47.11944876 102.48290884 54.25041387 115.67724609 61.46362305 C123.82902075 65.9161309 132.00678907 70.31968846 140.1875 74.71875 C148.45255507 79.16390373 156.70640717 83.62935823 164.95605469 88.10302734 C172.33782933 92.10421587 179.72994735 96.08591508 187.125 100.0625 C195.99273947 104.83179251 204.84194862 109.63340387 213.67675781 114.46337891 C221.8287207 118.91592161 230.00662873 123.31960224 238.1875 127.71875 C246.45255507 132.16390373 254.70640717 136.62935823 262.95605469 141.10302734 C270.33782933 145.10421587 277.72994735 149.08591508 285.125 153.0625 C293.09709511 157.35009252 301.05746373 161.65789669 309 166 C320.19859738 172.12139684 331.43574735 178.17030412 342.67675781 184.21337891 C356.46106074 191.62401135 370.24122714 199.04205808 384 206.5 C396.65505178 213.35481971 409.32797775 220.17660341 422 227 C422 255.71 422 284.42 422 314 C411.44 319.61 400.88 325.22 390 331 C381.70235887 335.51292634 381.70235887 335.51292634 373.4140625 340.04296875 C367.29311075 343.39373059 361.14666718 346.69671656 355 350 C346.98592551 354.30790292 338.9831622 358.63507408 331 363 C319.80144301 369.12146986 308.56425198 375.17030448 297.32324219 381.21337891 C291.8396156 384.16145262 286.35708224 387.11155564 280.875 390.0625 C279.79766602 390.64241699 278.72033203 391.22233398 277.61035156 391.81982422 C269.41378026 396.2340271 261.22676015 400.66567366 253.04296875 405.10351562 C245.66155654 409.10460963 238.26973224 413.08608738 230.875 417.0625 C222.90290489 421.35009252 214.94253627 425.65789669 207 430 C193.59141337 437.32942502 180.1277519 444.55618494 166.66796875 451.79101562 C154.53395736 458.31429437 142.41067095 464.85528248 130.32275391 471.46362305 C122.17097925 475.9161309 113.99321093 480.31968846 105.8125 484.71875 C98.53464628 488.63296211 91.26429005 492.56067654 84 496.5 C75.63362742 501.03696749 67.25726317 505.55496332 58.875 510.0625 C50.82130089 514.39479355 42.77763093 518.74458819 34.75 523.125 C33.87158447 523.60291992 32.99316895 524.08083984 32.08813477 524.57324219 C27.32415702 527.16882796 22.57805113 529.79286873 17.84765625 532.44921875 C16.83799805 533.0117334 15.82833984 533.57424805 14.78808594 534.15380859 C12.84266391 535.23825209 10.9016835 536.33071241 8.96582031 537.43212891 C8.09666992 537.91472168 7.22751953 538.39731445 6.33203125 538.89453125 C5.56608643 539.32612549 4.8001416 539.75771973 4.01098633 540.20239258 C2 541 2 541 -1 540 C-2.12867737 538.33718872 -2.12867737 538.33718872 -3.20141602 536.14892578 C-3.60936905 535.32941437 -4.01732208 534.50990295 -4.43763733 533.66555786 C-5.08919044 532.31903641 -5.08919044 532.31903641 -5.75390625 530.9453125 C-6.21425766 530.01516327 -6.67460907 529.08501404 -7.14891052 528.12667847 C-8.62957664 525.13067863 -10.09653524 522.12821679 -11.5625 519.125 C-13.4765349 515.22982769 -15.39591789 511.33730637 -17.31640625 507.4453125 C-18.03126945 505.99376518 -18.03126945 505.99376518 -18.76057434 504.51289368 C-22.57775687 496.78738545 -26.55829746 489.15784712 -30.59594727 481.54589844 C-34.16132419 474.82129138 -37.63856719 468.05256581 -41.07250977 461.26000977 C-41.83070899 459.76569156 -42.59392289 458.27390944 -43.36157227 456.78442383 C-44.4960158 454.58196281 -45.61483778 452.37219327 -46.73046875 450.16015625 C-47.07611374 449.49669693 -47.42175873 448.83323761 -47.77787781 448.14967346 C-49.03158949 445.63096204 -49.99901716 443.57158142 -50.00390625 440.72827148 C-48.53743719 438.20367652 -46.81069739 437.47852031 -44.20703125 436.1875 C-43.19584229 435.67582275 -42.18465332 435.16414551 -41.14282227 434.63696289 C-40.04381592 434.09676514 -38.94480957 433.55656738 -37.8125 433 C-35.50423514 431.83395575 -33.19696 430.66595045 -30.890625 429.49609375 C-29.72724609 428.90940918 -28.56386719 428.32272461 -27.36523438 427.71826172 C-22.54646203 425.25783515 -17.80094844 422.67345491 -13.0625 420.0625 C-11.25670634 419.07125758 -9.45071361 418.08037773 -7.64453125 417.08984375 C-6.73010254 416.5882373 -5.81567383 416.08663086 -4.87353516 415.56982422 C0.32175507 412.73161554 5.53615369 409.92893209 10.75 407.125 C11.83788818 406.53984619 12.92577637 405.95469238 14.04663086 405.35180664 C16.25951538 404.16178392 18.47248774 402.97192453 20.68554688 401.78222656 C26.12505126 398.85733101 31.5624431 395.92851396 37 393 C43.52288848 389.48726013 50.0460377 385.97500823 56.5703125 382.46484375 C67.05427005 376.82347611 77.53378435 371.17422591 88 365.5 C99.56035464 359.23259009 111.13744156 352.99651756 122.71777344 346.76611328 C129.22632617 343.26396582 135.7334948 339.75924707 142.24072266 336.25463867 C147.70638539 333.31117812 153.17278132 330.36909495 158.640625 327.4296875 C168.73422486 322.00194085 178.82057005 316.56251697 188.875 311.0625 C197.14382367 306.5403924 205.43988998 302.07074314 213.75 297.625 C214.62729263 297.15566544 214.62729263 297.15566544 215.52230835 296.67684937 C216.70461111 296.04438002 217.88691804 295.41191849 219.06922913 294.77946472 C219.65611008 294.46552261 220.24299103 294.15158051 220.84765625 293.828125 C221.43554428 293.51365921 222.02343231 293.19919342 222.62913513 292.87519836 C229.15354981 289.3843474 235.67144187 285.88141993 242.1875 282.375 C243.24356445 281.8073291 244.29962891 281.2396582 245.38769531 280.65478516 C251.28359096 277.48072983 257.1571869 274.27079998 263 271 C259.69308033 268.34092717 256.12933842 266.36662719 252.3828125 264.41015625 C251.73817047 264.06978836 251.09352844 263.72942047 250.42935181 263.3787384 C249.04769839 262.64954449 247.66525743 261.92184117 246.28210449 261.19549561 C242.629499 259.27700441 238.98294989 257.34706503 235.3359375 255.41796875 C234.24907654 254.84354034 234.24907654 254.84354034 233.14025879 254.25750732 C227.31762519 251.17687591 221.52494472 248.04417698 215.75 244.875 C207.5677427 240.38835438 199.35426001 235.96219351 191.125 231.5625 C181.37876609 226.35113043 171.64820827 221.111943 161.93359375 215.84179688 C151.39584141 210.12628749 140.83923542 204.44595336 130.28222656 198.76611328 C123.77367383 195.26396582 117.2665052 191.75924707 110.75927734 188.25463867 C105.29361461 185.31117812 99.82721868 182.36909495 94.359375 179.4296875 C84.26577514 174.00194085 74.17942995 168.56251697 64.125 163.0625 C54.07621104 157.56695351 43.98254096 152.15640473 33.88339233 146.75419617 C33.29281036 146.43828018 32.70222839 146.1223642 32.09375 145.796875 C31.2072728 145.3226989 31.2072728 145.3226989 30.30288696 144.83894348 C14.82461643 136.55735227 -0.63527573 128.23918569 -16.05200195 119.84350586 C-21.28009181 116.9986753 -26.52544936 114.19388526 -31.80078125 111.4375 C-32.91114746 110.85170166 -34.02151367 110.26590332 -35.16552734 109.66235352 C-37.30464351 108.53469677 -39.44932896 107.41752583 -41.60009766 106.31225586 C-42.55577637 105.80573486 -43.51145508 105.29921387 -44.49609375 104.77734375 C-45.34357178 104.33640381 -46.1910498 103.89546387 -47.06420898 103.44116211 C-49 102 -49 102 -49.74740601 100.20632935 C-50.08165295 97.28678711 -49.30028963 95.87079144 -47.97729492 93.25756836 C-47.2748188 91.84845436 -47.2748188 91.84845436 -46.55815125 90.41087341 C-46.03751602 89.39743362 -45.5168808 88.38399384 -44.98046875 87.33984375 C-44.44786942 86.28076309 -43.91527008 85.22168243 -43.36653137 84.13050842 C-41.65132566 80.72707923 -39.91950592 77.33240496 -38.1875 73.9375 C-37.06209165 71.70821679 -35.93773119 69.47840424 -34.81445312 67.24804688 C-29.44843488 56.61750116 -23.99729705 46.03581042 -18.4241333 35.51246643 C-14.64191823 28.35855119 -11.02430519 21.12840581 -7.4375 13.875 C-6.23017785 11.4337306 -5.02015002 8.99386487 -3.80859375 6.5546875 C-3.29095459 5.50780762 -2.77331543 4.46092773 -2.23999023 3.38232422 C-1 1 -1 1 0 0 Z " fill="#FEFEFE" transform="translate(1414,770)"/>
</svg>
